<?xml version="1.0" encoding="UTF-8" standalone="no"?>
<!DOCTYPE svg PUBLIC "-//W3C//DTD SVG 1.1//EN" "http://www.w3.org/Graphics/SVG/1.1/DTD/svg11.dtd">
<svg width="100%" height="100%" viewBox="0 0 2029 919" version="1.1" xmlns="http://www.w3.org/2000/svg" xmlns:xlink="http://www.w3.org/1999/xlink" xml:space="preserve" xmlns:serif="http://www.serif.com/" style="fill-rule:evenodd;clip-rule:evenodd;stroke-linecap:round;stroke-linejoin:round;stroke-miterlimit:10;">
    <g transform="matrix(1,0,0,1,-201,-198)">
        <path d="M1168.95,386.932C1237.67,502.99 1254.13,971.656 1221.96,1020.63C1189.77,1069.59 336.639,1116.89 277.999,1029.83C214.467,935.491 289.327,371.211 383.761,260.786C478.194,150.362 1136.25,331.694 1168.95,386.932ZM1078.01,445.901C1052.58,403.022 499.499,300.884 450.836,357.502C377.266,443.109 333.177,910.835 363.217,956.576C396.119,1006.7 1094.2,975.869 1119.22,937.853C1144.23,899.837 1131.43,536.002 1078.01,445.901Z" style="fill:white;stroke:rgb(35,31,32);stroke-width:1px;"/>
    </g>
    <g transform="matrix(1,0,0,1,-201,-198)">
        <path d="M1394.46,583.154C1354.11,583.154 1318.09,604.768 1298.64,641.153C1287.11,662.768 1281.7,687.624 1281.7,718.965C1281.7,755.71 1291.79,785.971 1311.96,808.666C1332.5,832.082 1359.16,843.249 1393.74,843.249C1422.2,843.249 1443.45,836.044 1463.27,819.833L1440.21,788.132C1438.41,789.573 1436.61,791.014 1435.17,792.095C1422.92,800.38 1411.03,804.343 1397.34,804.343C1375.73,804.343 1359.16,794.616 1349.07,776.244C1341.51,762.555 1338.62,743.462 1338.62,709.239C1338.62,680.059 1342.95,659.165 1352.67,644.755C1361.68,631.426 1378.25,623.141 1395.18,623.141C1409.23,623.141 1422.56,627.824 1435.17,637.19L1457.86,602.967C1444.17,591.079 1419.32,583.154 1394.46,583.154Z" style="fill:white;fill-rule:nonzero;"/>
    </g>
    <g transform="matrix(1,0,0,1,-201,-198)">
        <path d="M1486.32,625.663L1486.32,838.926L1535.31,838.926L1535.31,706.717C1546.12,696.991 1561.61,689.786 1573.5,689.786C1587.19,689.786 1592.23,696.63 1592.23,715.003L1592.23,838.926L1639.42,838.926L1639.42,709.959C1639.42,689.065 1638.34,686.183 1634.74,675.736C1628.98,660.246 1609.52,649.439 1586.83,649.439C1568.1,649.439 1547.2,657.364 1534.59,669.252C1534.59,667.09 1535.31,659.525 1535.31,653.761L1535.31,617.017C1535.31,599.365 1534.23,582.073 1532.07,571.986L1482.72,583.514C1484.88,591.079 1486.32,608.371 1486.32,625.663Z" style="fill:white;fill-rule:nonzero;"/>
    </g>
    <g transform="matrix(1,0,0,1,-201,-198)">
        <path d="M1672.93,747.425C1672.93,805.424 1705.71,842.889 1755.79,842.889C1784.25,842.889 1802.62,833.162 1816.67,817.312C1832.52,799.3 1839.72,777.685 1839.72,745.984C1839.72,716.083 1833.24,695.91 1818.47,678.618C1802.62,659.886 1782.08,650.88 1755.79,650.88C1706.07,650.88 1672.93,689.426 1672.93,747.425ZM1777.4,696.27C1783.88,704.556 1787.13,720.767 1787.13,745.623C1787.13,789.213 1778.12,807.945 1757.23,807.945C1747.86,807.945 1737.05,802.902 1732.73,792.815C1728.77,783.449 1726.61,767.598 1726.61,746.344C1726.61,727.972 1728.41,715.003 1731.65,705.276C1735.61,693.748 1744.98,686.544 1756.51,686.544C1765.15,686.544 1772.72,690.146 1777.4,696.27Z" style="fill:white;fill-rule:nonzero;"/>
    </g>
    <g transform="matrix(1,0,0,1,-201,-198)">
        <path d="M1981.65,657.364C1971.2,652.32 1958.24,649.078 1945.99,649.078C1930.5,649.078 1912.48,654.482 1900.24,662.768C1878.62,677.538 1862.41,705.636 1862.41,748.145C1862.41,807.945 1891.95,843.249 1942.74,843.249C1960.4,843.249 1974.81,839.287 1987.78,831.721C1994.26,827.759 1997.5,825.237 2004.71,818.032L1982.73,788.853L1979.85,791.374C1967.96,801.821 1957.87,806.504 1946.71,806.504C1938.42,806.504 1930.14,802.542 1925.09,796.057C1918.61,788.132 1915.73,773.722 1915.73,749.586C1915.73,706.357 1925.45,687.624 1947.07,687.624C1956.07,687.624 1966.52,693.028 1976.25,702.034L1999.66,670.333C1991.74,663.488 1988.5,660.966 1981.65,657.364Z" style="fill:white;fill-rule:nonzero;"/>
    </g>
    <g transform="matrix(1,0,0,1,-201,-198)">
        <path d="M2074.96,734.456L2136.92,838.926L2193.84,838.926L2121.43,731.574L2180.15,653.761L2122.15,653.761L2074.96,734.456ZM2025.61,631.066L2025.61,838.926L2073.88,838.926L2073.88,631.066C2073.88,606.57 2073.16,584.955 2071,571.266L2022.37,583.154C2025.25,602.247 2025.61,614.855 2025.61,631.066Z" style="fill:white;fill-rule:nonzero;"/>
    </g>
</svg>
